<svg version="1" xmlns="http://www.w3.org/2000/svg" width="533.333" height="533.333" viewBox="0 0 400.000000 400.000000"><path d="M189.9 32.7c-1.2 1.6-1.2 1.7.1.7.8-.6 2.2-1.4 3-1.7 1.3-.5 1.2-.6-.1-.6-.9-.1-2.3.7-3 1.6zM195 31.4c0 1 6 12.6 6.5 12.6.3 0-.9-2.8-2.6-6.3-3.3-6.5-3.9-7.5-3.9-6.3zM186.2 38c-1.2 1.6-2.2 3.2-2.2 3.7 0 .4 1.1-.8 2.5-2.7 1.4-1.9 2.5-3.5 2.5-3.7 0-.8-.8 0-2.8 2.7zM178.9 45.7c-1.3 1.6-1.2 1.7.4.4 1.6-1.3 2.1-2.1 1.3-2.1-.2 0-1 .8-1.7 1.7zM204.4 45.4c1.1.9 2.4 1.6 3 1.6 1.2 0 .7-.5-2.4-1.9-2.4-1.1-2.4-1.1-.6.3zM209 47.4c0 .2.7.7 1.6 1 .8.3 1.2.2.9-.4-.6-1-2.5-1.4-2.5-.6zM213.7 49.1c.7.7 1.5 1 1.8.7.3-.3-.2-.9-1.2-1.2-1.4-.6-1.5-.5-.6.5zM164 55.6c-1.2 1.9-2.1 3.7-1.8 3.9.2.2 1.4-1.4 2.6-3.6 2.8-4.9 2.2-5.2-.8-.3zM167.1 56.9c-2.2 2.1-4.1 4.3-4.1 5 0 .7-.4.9-1 .6-.6-.4-1 1.5-1 4.9 0 5-.4 6-4.4 11-5.9 7.1-9 17.7-7 23 .3.9.9 1.4 1.3 1.2.8-.5 1 .6 1.7 9.8.4 4.6.9 6.4 1.5 5.5.5-.9.9-1 .9-.2 0 .6-.5 1.5-1 1.8-1.2.7-.4 2.5 1 2.5.6 0 1.6-1.5 2.3-3.3.8-1.8 4.5-6.1 8.2-9.5l6.9-6.3-1.8-5.7c-1-3.1-2-6.3-2.2-7.1-.9-3 4.1-8.2 11.1-11.8 3.9-2 8.2-4.4 9.7-5.4 3.3-2.4 16.7-5.3 23.3-5.1 6.3.3 10.5 2.1 10.5 4.7.1 1.1.8 3.1 1.6 4.5.9 1.4 1.2 1.6.7.5-.4-1.1-.8-4.3-.8-7.2 0-4.3-.2-4.8-1.1-3.1-1 1.8-1.1 1.7-1.2-1.2 0-2.4.3-3 1.4-2.6 2.5 1 1.8-6.7-.8-9-1.3-1.1-1.7-1.2-1.1-.3 1 1.3.7 1.7-2.2 2.8-1.8.6-6.7 1.6-10.7 2-4 .5-9.1 1.6-11.3 2.5-2.2 1-6 2.4-8.5 3.3-8.4 2.8-28.5 13.5-32.2 17.1-5.1 4.9-4.8 3.4.7-3.4 3.1-3.8 4.5-6.5 4.6-8.7l.1-3.2.8 3 .8 3 .1-3.3c.2-4.9 2.5-9.6 6.1-12.4 1.8-1.4 2.8-2.8 2.3-3.1-.6-.4-2.9 1.1-5.2 3.2zm56.6 4.3c-.3.8-.6.5-.6-.6-.1-1.1.2-1.7.5-1.3.3.3.4 1.2.1 1.9zm-21 6.4c-.3.3-1.2.4-1.9.1-.8-.3-.5-.6.6-.6 1.1-.1 1.7.2 1.3.5zm-7 1c-.3.3-1.2.4-1.9.1-.8-.3-.5-.6.6-.6 1.1-.1 1.7.2 1.3.5zm-3.7.9c0 .2-1.3 1.1-3 2-3.8 1.9-4 1.1-.2-.9 3.1-1.7 3.2-1.8 3.2-1.1zM181.5 75c-.3.5-1.2 1-1.8 1-.7 0-.6-.4.3-1 1.9-1.2 2.3-1.2 1.5 0zm-5.6 2.3c-.2.2-2 1.4-3.9 2.6l-3.5 2.3 3-2.6c1.7-1.4 3.4-2.6 3.9-2.6s.7.1.5.3zm-8.9 6c0 .2-1.9 2.1-4.2 4.2l-4.3 4 4-4.3c3.6-3.9 4.5-4.7 4.5-3.9zm-11 29.3c0 1.9-.3 3.4-.8 3.4-.4 0-.7-1.8-.7-3.9 0-2.2.3-3.7.7-3.5.5.3.8 2.1.8 4zM229 82.5c1.3 1.4 2.6 2.5 2.8 2.5.3 0-.5-1.1-1.8-2.5s-2.6-2.5-2.8-2.5c-.3 0 .5 1.1 1.8 2.5zM237 89.4c0 .2.8 1 1.8 1.7 1.5 1.3 1.6 1.2.3-.4s-2.1-2.1-2.1-1.3zM241.7 94.8c.3 1.4-.1 1.8-2.4 1.7-1.5-.1-4.1.3-5.8.8-1.6.4-11.6 2.5-22 4.6-14.8 3-21.4 4.8-29.5 8.3-6.2 2.6-10.4 5-10.2 5.7.1.7-.2 1-.7.6-1.6-.9-14.9 8.2-17.2 11.8-1.2 1.7-1.9 2.4-1.5 1.4.3-.9.2-1.7-.3-1.7-.7 0-2 4.8-3.7 14-.2.8.6 2.3 1.7 3.3 1 1 1.9 2.2 1.9 2.8 0 1.3 7-6.8 9.9-11.5 1.3-2 2.5-3.6 2.8-3.6.3 0-.3 1.2-1.2 2.7-1 1.6-2.5 3.8-3.3 5-1.9 3-.9 2.9 3.1-.1 3.8-2.9 19.7-9.6 22.7-9.6 1.9 0 17.3-8.5 21-11.6 1.1-.9 2.7-1 5.5-.4 12.6 2.7 16.7 3.9 18.9 5.4 3.1 2 3.3 2 3.9-.2.4-1.5.5-1.5.6.1.1 2 4.1 7.7 4.1 5.9 0-.6-.4-1.4-1-1.7-1.5-.9-1.2-9.1.5-13.1.8-2 1.2-4.1.8-4.7-.3-.5-.1-.7.4-.4 1.7 1.1 3.7-11.2 2.4-14.6-1.2-3-2.2-3.7-1.4-.9zm-19 19.2c1.4 1.1 2.2 2 1.8 2-.4 0-1.8-.9-3.2-2-1.4-1.1-2.2-2-1.8-2 .4 0 1.8.9 3.2 2zm-20.6.7c1.2 1.6 1.2 1.7-.1.7-.8-.7-2.4-1.4-3.5-1.7-1.9-.4-1.9-.5.1-.6 1.2 0 2.8.7 3.5 1.6zm9.9.3c-.8.5-1.9 1-2.5 1-.5 0-.3-.5.5-1s2-1 2.5-1c.6 0 .3.5-.5 1zm21.3 7.9c-.2.3-2-1.2-4.1-3.4l-3.7-3.9 4.1 3.5c2.2 1.9 3.9 3.6 3.7 3.8zm-51.4-1.5c-.2.2-1.5.9-2.9 1.5-2.4 1.1-2.4 1.1-.6-.3 1.6-1.3 4.9-2.4 3.5-1.2zm-10.9 5.9c0 .2-1.2 1.4-2.7 2.8l-2.8 2.4 2.4-2.8c2.3-2.5 3.1-3.2 3.1-2.4zM152.1 123.6c0 1.1.3 1.4.6.6.3-.7.2-1.6-.1-1.9-.3-.4-.6.2-.5 1.3zM245.2 137.6c2.5 2.9 4.8 8.9 4.8 12.4 0 3.2-.6 3.6-3 2-1.3-.8-1.2-1 .3-1 2.1 0 2.2-2.5.2-7.3-1.7-4.1-3.5-5.6-3.5-3 0 1-.8 3.5-1.9 5.5-1.8 3.7-1.8 3.7.3 4.1 1.1.3.5.3-1.4.1-1.9-.2-5.7-.8-8.5-1.4-6-1.3-43.9-1.4-51-.1-9.9 1.8-22 5.2-25.3 7.1-4 2.4-4.6 2.5-3.8.4.3-.9.2-1.2-.5-.9-.6.4-.8 1.3-.5 2.1.3.8.1 1.4-.4 1.4-.6 0-1 2-1 4.4 0 5 3.3 10 7.3 11 3.1.7 4.9 4.8 4.1 9.6-.6 3.5-.3 4.2 3 7.5 2 1.9 3.6 4.2 3.6 4.9 0 .7.8 2.4 1.9 3.7 1.2 1.6 2.1 5 2.6 9.9.4 4.1 2.1 11.5 3.7 16.5 2.8 8.5 4.8 12.5 4.8 9.6 0-.7 1.3-2.4 3-3.8 1.7-1.3 3-3.1 3-3.9 0-3.2 8.7-4.4 13.8-1.9 2.6 1.3 3.1 2.3 3.7 6.4.5 3.6 1.2 5 2.5 5.4 1.4.4 2.2-.4 3.4-3.4.9-2.1 2.1-3.9 2.7-3.9.6 0 2-1.1 3.1-2.5 2.3-3 3.9-3.1 9.5-.8 3.6 1.5 4.3 2.3 4.3 4.5 0 3.5 1.3 3.5 3.9.2 2.5-3.2 2.6-5 .5-9.9-1.1-2.8-1.4-5.1-.8-8.9.4-2.8.6-6.1.5-7.3-.5-4.9 2.1-17.8 4-19.9 1.5-1.6 2.1-3.8 2.2-8.9.2-6 .5-6.9 2.7-8.4 1.4-.9 3.7-2.8 5.2-4.2 2.5-2.5 2.7-3.2 2.7-10.9 0-8.7-1.8-14.1-5.6-17-1.7-1.4-1.7-1.4-.1.6z"/><path d="M155.9 145.6c-2.3 2.5-2.3 2.6-.2 1.3 1.3-.7 2.5-1.9 2.7-2.6.8-1.9.2-1.6-2.5 1.3zM193 227c-.8.5-2.3.7-3.2.4-1.2-.4-1.5 0-1.1 1.5.4 1.5-.1 2.3-1.8 3-1.3.5-2 1-1.6 1 .5.1 0 1.4-.9 3-1.6 2.8-1.6 3 .5 5.9 2 2.9 2.1 3.3.6 6.8-1.8 4.3-1.8 4.7-.4 3.9.5-.4 1.9.1 2.9 1 1.5 1.4 1.7 2.1.7 3.6-.8 1.3-1.5 1.5-2.4.7-2.3-1.9-1.4.2 1.9 4.3 3 3.8 3.1 4 1.4 5.7-1.6 1.6-1.8 1.6-2.7-.1-.6-.9-1.5-1.7-2.1-1.7-.6 0-.3 1.1.6 2.5 1.8 2.8 1.3 5-1 4.1-2.1-.8-1.7 2.3.6 6.2 1.6 2.7 1.8 3.7.9 4.8-1.6 1.9-2.7 1.8-3.4-.6-.3-1.1-1.1-2-1.6-2s-.2 1.4.7 3.1c1.3 2.6 1.3 3.3.3 4-.7.4-1.7.5-2.1.3-1.4-.9-.9 1 1.1 4 1.7 2.5 1.7 3.1.5 4.3-.7.8-1.9 1.1-2.5.8-1.4-.9 2 5.8 3.5 6.7 1.4 1-1.3 3-2.8 2.1-.5-.4.1 1 1.4 3.1 1.8 3 2 4 1 4.6-.7.5-2 .6-2.9.2-1.1-.3-.8.3.8 2.1 2.5 2.7 2.1 5-.6 4-1.1-.4-1.4-.3-.9.6.4.6.3 1.8-.4 2.6s-.7 1.5-.1 1.9c.6.4.8 1.2.5 1.9-.2.7.4 2.2 1.6 3.2 2.7 2.4 2.5 3.5-.5 3.5-1.4 0-2.9.8-3.5 1.9-1.5 2.9-1.2 7.7.5 9.1.9.7 1.3 2.1 1 3.1-.3.9-.1 2 .5 2.4.7.4.3 1.5-1 3.2-1.8 2.3-1.9 2.7-.4 6.1l2.1 4.9c.5 1.1 7.4 4.3 9.4 4.3.6 0 2.6-.7 4.5-1.6 4.1-2 4.4-4.3 1.3-11.5-1.9-4.2-2.5-4.9-4.3-4.3-4.9 1.6-5.1 1.6-3.2 0 1.7-1.4 1.7-1.6.4-1.6-.9 0-2 .5-2.3 1-.8 1.4-3.5 1.3-3.5-.1 0-.6.7-.9 1.5-.5.8.3 1.4 0 1.2-.7-.1-.7.8-1.1 2.3-.9l2.5.2-2.7-2.5c-3-2.8-4.4-3.1-5.1-1.3-.2.7-.8 1-1.2.6-.9-.8 1.8-3.8 3.4-3.8.6 0 1.1-.5 1.1-1.1 0-.6.9-.8 2.3-.4 2.2.7 2.2.7.2-.9-1.6-1.3-1.7-1.5-.2-1 1.3.5 1.7.1 1.7-2 0-1.6-.6-2.6-1.5-2.6-.8 0-1.5-.5-1.5-1 0-.6.5-1 1-1 .6 0 1-.5 1-1 0-.7-.6-.7-1.9 0-1.3.7-2.2.7-2.6 0-.3-.5-.1-1 .6-1 1.4 0 4.9-3.9 4.9-5.4 0-.6-.4-.5-.9.3-.6.9-1.1 1-1.5.2-.4-.6-.4-1.6-.1-2.2.4-.6 0-.9-.8-.7-.9.2-1.6-.2-1.5-.7 0-1.1.3-1.1 3.1 0 1 .4 1.7.3 1.7-.4 0-.6-.7-1.1-1.6-1.1-.9 0-1.4-.6-1.1-1.3.2-.6 1.5-1.1 2.8-.9 1.7.1 2 0 1-.7-.7-.5-1.1-1.4-.7-2 .4-.7.1-.9-.7-.5-3.1 1.2-2.7-1.8.7-5.6 4.1-4.5 4.9-7.6 1.1-4-1.9 1.8-2.8 2.1-3.7 1.2-.9-.9-.3-2 2.3-4.5 1.9-1.9 4.3-4.9 5.3-6.8l1.9-3.4-2.6 2.3-2.5 2.4-1.2-2.2c-.9-1.8-.8-2.5.6-4.1 1.4-1.6 2-1.7 3.3-.6 1.4 1 1.4 1 .4-.4-1.1-1.3-.9-2 1.1-3.8 2.3-2.1 2.3-2.4.8-4.2-.9-1-1.8-1.6-2-1.4-.3.3.1 1.2.8 2 1.1 1.3 1 1.8-.6 3-1.7 1.2-2 1.2-2.8-.5-.7-1.5-.2-2.8 2-5.4 1.6-1.9 3.5-3.3 4.2-3 .7.2 1-.1.7-.7-.4-.5-.1-1.7.7-2.6 1.1-1.5 1.1-1.6-.4-1-1.3.5-2.2-.2-3.3-2.4-1.5-2.8-1.5-3.1.4-5.4l1.9-2.5 2.6 3.1c3.3 3.9 3.4 2.7.2-1.6l-2.5-3.2 2.1-2.2c2-2.2 2-2.3.2-3.6-5.9-4.2-5.9-4.2-4.5-5.9 1.2-1.4 1.5-1.4 3.9 0l2.7 1.6-2.3-2.1c-2.4-2.1-2.1-4.7.5-3.7.9.4 1.3.1 1-.6-.2-.7.2-2.1 1.1-3.1 1.6-1.8.3-2.4-1.5-.6-.7.7-1.5.2-2.7-1.7-1.2-1.7-1.5-2.9-.8-3.6.7-.7 1.4-.3 2.2 1.2.6 1.2 1.4 2 1.6 1.7.6-.5-4.7-10.7-5.5-10.7-.3 0-1.3.5-2.1 1zm3 2.9c1.3 2.6 1.3 3.1-.5 3.1-1.6 0-3.8-3.4-2.8-4.4 1.1-1.1 2.2-.6 3.3 1.3zm-.5 7.1l2.7 3.9-2.8 3.5c-2.2 2.8-3.1 3.3-4.6 2.5-2-1.1-2.2-1.8-.8-3.9.7-1.2 1.2-1.2 2.2-.2 2 2 3.3 1.4 1.4-.7-1.4-1.5-1.5-2.4-.6-4 .6-1.2.7-2.1.1-2.1-.5 0-1.2.8-1.6 1.7-.6 1.5-.9 1.4-2.1-1-1.2-2.2-1.3-3.1-.3-4.3 1.4-1.7 2.6-.9 6.4 4.6zm-6.1 4.3c-.3.9-1 1.7-1.5 1.7-1.4 0-3.1-4-2.4-5.8.5-1.4.8-1.3 2.6.4 1.2 1.3 1.7 2.7 1.3 3.7zm2 10.7c-.5 2.4-.5 2.4 1 .6 1.5-1.9 1.6-1.9 3.8 0 1.3 1 2.5 2 2.7 2.1.1.1-.3 1.1-1.1 2.2-1.4 2-1.5 1.9-6.2-2.2-3.4-3-4.6-4.7-4.1-5.9 1.1-2.8 4.6 0 3.9 3.2zm2.8 10.5l-1.7 2.4-2.2-2.6c-1.7-2.1-1.9-3-1-4.4 1-1.7 1.2-1.7 3.9.2 2.7 2 2.8 2.1 1 4.4zm.6 11.3c-.5 2.6-2.3 2.3-4-.6-1.4-2.3-1.5-3.1-.5-4.1.9-.9 1.6-.7 3 1 1 1.2 1.7 2.9 1.5 3.7zm-3.8 3.7c0 .7-.6 1.8-1.4 2.4-2.1 1.8-4.9-3.6-3.2-6.2 1-1.7 1.2-1.6 2.9.4.9 1.2 1.7 2.7 1.7 3.4zm-2.3 11.5l-1.5 2.2-1.2-2.2c-1-1.8-.8-2.5.6-4.2 1.8-2 1.9-2 2.7 0 .7 1.4.5 2.7-.6 4.2zm-3.3 4.2c-.9 1.4-2.1.8-3.2-1.6-.8-1.9-.8-2.6.1-2.9 1.3-.4 3.8 3.3 3.1 4.5zm3.3 2.4c1.5 1.4 1.3 1.8-1.5 4.7-2.6 2.6-3.3 2.8-4.6 1.7-.9-.7-1.6-1.8-1.6-2.6 0-2.1 2.2-2.8 3.5-1.1 1.7 2.4 2.8 2.1 1.5-.3-1-1.9-.6-4 .6-4 .3 0 1.3.7 2.1 1.6zm-2.8 11.7c.8 1 .7 1.7-.1 2.5-1.6 1.6-2.5 1.5-3.2-.4-1.2-3 1.2-4.5 3.3-2.1zm-1.1 9.8c-1.6 1-3.3-.5-2.3-2.1.5-.8 1.1-.8 2.1.1 1.2 1 1.2 1.4.2 2zM182 324c0 .5-.7 1-1.6 1-.8 0-1.2-.5-.9-1 .3-.6 1-1 1.6-1 .5 0 .9.4.9 1zm2.4 3.1c-.3.5-1 .7-1.5.3-.5-.3-.7-1-.3-1.5.3-.5 1-.7 1.5-.3.5.3.7 1 .3 1.5zm-2.9.9c.3.5.2 1-.4 1-.5 0-1.3-.5-1.6-1-.3-.6-.2-1 .4-1 .5 0 1.3.4 1.6 1zm2.5 11c0 .5-.4 1-.9 1-.6 0-1.3-.5-1.6-1-.3-.6.1-1 .9-1 .9 0 1.6.4 1.6 1zm-3.6.9c.3.4-.3 1.6-1.4 2.6-1.9 1.7-2 1.7-2 .1 0-1.1.5-1.4 1.2-1 .8.5.9.2.5-.9-.7-1.7.8-2.4 1.7-.8zm2.6 7.1c0 .5-.5 1-1.1 1-.5 0-.7-.5-.4-1 .3-.6.8-1 1.1-1 .2 0 .4.4.4 1zM198 226.7c0 1.4 4.1 7.6 4.6 7 .7-.6-2.2-6.3-3.6-7.2-.5-.3-1-.3-1 .2zM218.7 229.5c.6 1.7-3.5 4.5-5.5 3.8-.9-.4-1.3-.2-.9.5.4.6-.2 2.6-1.4 4.6l-2.1 3.5 3.3 4.1c3.2 4 3.2 4 1.3 6.2-1 1.3-2.3 2.6-2.7 2.9-.5.3.8 2.7 2.7 5.2 2.1 2.7 3.3 5.3 3 6.2-.8 2-1.3 1.9-3.6-1-1.1-1.4-2.4-2.5-3-2.5-.5 0 .2 1.4 1.6 3.1 1.4 1.7 2.3 3.6 2 4.1-.4.6-.2.8.3.5.6-.4 1.9.5 2.8 2 1.2 1.8 1.4 2.8.7 3.1-.7.2-1.2.8-1.2 1.4 0 .7.5.6 1.4-.1 2.3-1.9 4.1 1.2 1.8 3.2-1.6 1.4-1.9 1.3-4.2-1.8-1.4-1.9-3.1-3.7-3.8-4-.7-.2.1 1.5 1.9 3.9 3 4.3 3.2 7.3.3 6.2-2.1-.8-1.8 0 2.2 6.6 2.8 4.5 3.4 6.2 2.5 7.1-.9.9-1.4.8-2.1-.3-.6-.9-.6-1.6 0-1.8.6-.2 1-.9 1-1.5 0-.8-.3-.8-1.2.1-.9.9-1.5.9-2.6-.1-.8-.6-.2 1.2 1.4 4.1 2.4 4.4 2.6 5.5 1.4 6.2-.8.5-1.8.6-2.2.4-.4-.3-.8-.1-.8.5 0 .5.5 1.3 1.1 1.7.6.3.9 1.7.6 3-.3 1.6 0 2.4.9 2.4.8 0 1.4 1 1.4 2.2 0 2.1 0 2.1-2.2.2-2.1-1.9-2.1-1.9-1.3.1.4 1.1.8 2.8.9 3.7 0 .9.2 1.5.5 1.3.4-.5 4.1 5 4.1 6 0 .3-.4.5-1 .5-.5 0-1-.6-1-1.3 0-.7-.9-1.8-2-2.5-1.2-.7-2-.8-2-.2 0 .5.4 1 .8 1 1.7 0 1 3.8-.9 4.3-1 .3-1.9 1.2-1.9 2.1 0 1.8 1.6 2.2 2.2.5.2-.7.9-.5 1.7.5 1.2 1.4 1 1.6-1.8 1.6-2.7 0-3.1.3-2.9 2.5.1 1.4.6 2.5 1.1 2.5.5 0 .3.8-.4 1.7-1.3 1.5-1.1 1.6 1.1 1l2.5-.6-2.2 1.8-2.2 1.8 2.5 2.4c2.1 2 2.2 2.5 1 3.7-1.5 1.5-3.6.9-3.6-1 0-.6.6-.5 1.6.3 1.4 1.2 1.6 1.1 1.3-.6-.6-3-4.4-2.7-4.3.3 0 1.4-.4 2.1-1.2 1.8-1.3-.5-3.6 4.3-4.9 10.2-1 4.7.7 6.2 6.9 6.2 6.1 0 11.5-2.9 11.8-6.2.2-3.8-.3-7.2-1.3-8.4-.5-.6-.6-1.9-.3-2.8.4-1-.1-2.6-1.2-3.9-1.4-1.5-1.4-1.8-.3-.9 1.4 1 2 1 3.3-.3.9-.9 1.6-2.3 1.6-3 0-2.9-2.1-6.6-4.2-7.4l-2.2-.8 2.2-1.4c2.5-1.6 3-3.1.7-2.3-2 .8-1.9-.6.3-2.2 1.5-1.2 1.5-1.5.2-2.4-1.3-.9-1.2-1.2.4-2.5 1.6-1.2 1.7-1.8.8-2.7-1.7-1.7-1.5-3.6.8-6.5 1.7-2.2 1.8-2.7.5-4-1.3-1.3-1.3-1.8.5-4 2.6-3.3 1.7-4.4-.9-1.2-1.4 1.6-2 1.9-2.1 1 0-.8 1.2-2.8 2.7-4.3 1.5-1.5 2.1-2.8 1.5-2.8-.7 0-2 .9-2.9 2-1.8 2.1-3.3 2.6-3.3 1.2 0-.5 1.8-2.1 4-3.8 3.5-2.6 6.7-6.6 3.9-4.8-.6.4-1.5 0-2-.7-.4-.7-1.1-1-1.6-.6-.4.5-.1 1.2.7 1.8 1.3.8 1.3 1 0 1.9-2.1 1.3-2.7 1.2-3.3-.5-.4-.9.8-2.6 3.1-4.5 2-1.6 3.2-3 2.6-3-.5 0-1.6.6-2.2 1.2-1 1-1.5 1-2.2-.2-.7-1.1-.1-1.9 2.5-3.2 3.7-2 6.1-4.6 3-3.4-3 1.1-3.6-1.5-.9-3.6l2.4-1.9-2.1-2.9-2.2-2.8 2.2-3c3-4.3 2.5-5.3-.8-1.4-2.6 3.1-2.8 3.1-4.4 1.4-1.5-1.7-1.5-2-.1-4.1 1.3-1.8 1.8-2 2.5-1 .6 1 .8.6.7-1.1-.2-1.7.2-2.5 1.2-2.4.9.1 1.6-.7 1.6-1.7 0-1.1-.4-1.9-.8-1.9-1.4 0-.9-4.7.6-6 1.1-.9 1.3-1.8.5-3.7-.7-2-.6-3 .8-4.6 1.6-1.8 1.6-2 .1-1.4-2.7.9-3.1-3.3-.6-6 1.2-1.3 1.7-2.3 1.1-2.3-.6 0-1.6.7-2.4 1.6-1.2 1.4-1.4 1.4-2.6-.2-.9-1.2-1-2.1-.2-3 .8-1 .4-1.3-1.9-1.2-2 .1-2.9.5-2.5 1.3zm1.6 7.2c-2 1.6-2.9 1.9-3.5 1-1.2-1.8-1-2.4 1.4-4.7 2.2-2 2.3-2 3.6-.3 1.1 1.6.9 2.1-1.5 4zm3.9 2.3c.3 2-.1 3.5-1.3 4.6-1.6 1.4-1.8 1.4-2.9-.6-1-1.8-.8-2.6 1.1-4.6 1.2-1.3 2.3-2.4 2.5-2.4.1 0 .4 1.4.6 3zm-8.4-.3c.7 1.2.4 2.1-1.2 3.4-1.1 1-1.6 1.8-.9 1.9.6 0 1.5-.5 1.8-1 .9-1.5 1.9-1.2 3.3 1.1 1.1 1.8 1.1 2.3-.4 3.3-1.5 1.1-2.1.8-4.6-2-2.5-2.8-2.7-3.5-1.7-5.8 1.4-3 2.4-3.3 3.7-.9zm8.9 10.1c-.9 1.1-1.2 1-2-.3-.5-1-.4-2.1.4-3.1 1.2-1.4 1.4-1.4 2 .3.3 1 .2 2.4-.4 3.1zm-2.9 3.9c-1 1.2-1.4 1.2-2.6-.1-1.3-1.3-1.3-1.7-.2-3.1 1.3-1.6 1.5-1.5 2.7.1 1 1.3 1 2.1.1 3.1zm-5 4c-1.6 1.7-2.4 2-3.5 1.2-1.8-1.6-1.6-2.5.9-4.8 2-1.9 2.2-1.9 3.4-.3 1.1 1.4.9 2.1-.8 3.9zm7.5-2.3c.3.8 0 1.9-.7 2.6-1 .8-1.5.6-2-.6-.7-1.7 0-3.4 1.4-3.4.4 0 1 .6 1.3 1.4zM220 261l-1.3 3.1-2-2-2.1-2 2.4-2.1c3.2-2.7 4.7-1.2 3 3zm0 7.5c.7.8.9 2.3.4 3.7-.6 1.9-.4 2.1.7 1.1 2.2-1.8 5.7 1 3.9 3.2-.7.8-1.6 1.5-2.1 1.5-1.3 0-7.1-8.9-6.4-10 .9-1.4 2.1-1.2 3.5.5zm1.8 15.1c-2.4 2.4-4.4.7-2.2-1.7 1.2-1.3 2.1-1.6 2.8-.9.7.7.5 1.5-.6 2.6zm-2.1 6.3c-.1.8-.8 1.6-1.6 1.9-1 .3-1.2-.2-.7-2.1.5-2.1.3-2.5-.9-2.1-1.7.7-1.8.3-.8-2.1.5-1.5.8-1.5 2.4.6 1.1 1.3 1.8 3 1.6 3.8zm-.7 16.5c0 1.6-1.8 3.1-2.7 2.2-.8-.8.5-3.6 1.7-3.6.5 0 1 .6 1 1.4zm1.9 5.8c-1 1.9-2.9 1.6-2.9-.6 0-.6.5-1.7 1.2-2.4 1.7-1.7 3 .6 1.7 3zm-1.6 7.3c.4.8.2 1.7-.3 2-.6.4-1 .4-1 .1 0-.2-.3-1.1-.6-2-.3-.9-.2-1.6.4-1.6.5 0 1.2.7 1.5 1.5zM217 330c0 .5-.2 1-.4 1-.3 0-.8-.5-1.1-1-.3-.6-.1-1 .4-1 .6 0 1.1.4 1.1 1zm.5 8.5c1.4 1.3 2.5 3.2 2.4 4.2 0 1.1-.3 1.3-.6.5-.2-.6-1-.9-1.6-.5-.6.4-.8 0-.4-1s.2-1.6-.6-1.4c-.7.1-1.1-.4-.9-1.1.1-.6-.5-1.2-1.3-1.2s-1.5-.5-1.5-1c0-1.7 2-1.1 4.5 1.5zm-1.9 5.3c-.3.5.4 1.9 1.5 3.1 2.2 2.3 1.8 4.1-.9 4.1-1.3 0-1.4-.2-.4-.9 1.2-.7 1.2-1.2.1-3-.8-1.1-1.7-2.1-2.1-2.1-.5 0-.8-.5-.8-1 0-.6.7-1 1.6-1 .8 0 1.3.4 1 .8z"/><path d="M183.5 248c.3.5.8 1 1.1 1 .2 0 .4-.5.4-1 0-.6-.5-1-1.1-1-.5 0-.7.4-.4 1zM177 332c0 .5.7 1 1.5 1s1.5-.5 1.5-1c0-.6-.7-1-1.5-1s-1.5.4-1.5 1zM184 343c0 .5.9 1 2.1 1 1.1 0 1.7-.5 1.4-1-.3-.6-1.3-1-2.1-1s-1.4.4-1.4 1z"/></svg>