<svg version="1" xmlns="http://www.w3.org/2000/svg" width="533.333" height="533.333" viewBox="0 0 400.000000 400.000000"><path d="M0 200v200h400V0H0v200zM198.5 51.7c3.1 5.9 3.7 6.4 14.2 10.9 3.3 1.4 7.3 3.9 8.8 5.4 2.7 2.8 2.8 3.1 2.1 11.2-.8 10.1.1 12 9.7 19.9 3.6 3 7.1 6.6 7.7 8.2 1.6 3.6.7 10.1-2.5 17.6-3.8 9.2-3.5 11.8 3 19.8 3 3.7 5.9 8.4 6.5 10.3 1.2 4.4 1.3 9.1 0 11-.8 1.3-1.2 1.3-3.2.1-4.8-3-12.3-4.1-29.5-4.1-9.5-.1-17.6.1-18.1.4-.4.2-7.1.9-14.7 1.5-12.7 1-22.9 3.2-28.7 6.2-2.2 1.1-2.2.7-.4-5.3 1.4-4.4 1.3-4.9-.6-7.4-2-2.5-2.7-9.1-1.3-11.5 1-1.5 3.5-17.2 3.5-21.7 0-2.3-.9-6-2-8.2-1.1-2.2-2-5.2-2-6.8 0-5.1 2.9-12.7 6.3-16.7 4.9-5.7 5.7-7.7 5.7-13.5 0-7.6 2.7-11.8 10.3-15.8 7.6-4.1 10.2-6.3 14.6-12.5 4.7-6.5 6.8-6.3 10.6 1zm22.2 130.8c5.4.6 12.2 3.3 10.6 4.3-.6.4-6.5.4-13 0s-12.5-.5-13.3-.2c-.8.3-5.8.9-11.1 1.4-5.3.4-12.1 1.6-15.2 2.6-3.1 1-6 1.4-6.4 1-2.3-2.2 11.3-7.9 23-9.6 4.9-.7 15.9-.5 25.4.5zm-1.2 11.5c6 1.3 9.1 5.4 9.9 12.9.4 3.3 1.1 6.1 1.6 6.1.6 0 1 1.3 1 2.9 0 2.8-.1 2.9-3.7 2-6.6-1.4-33.4-2.1-41.8-1.1-8.8 1.2-10.4.8-8-1.8.9-1 1.8-3.3 2.1-5.1 1-6.1 4.4-8.7 16.7-13 11.6-4 15.3-4.5 22.2-2.9zM200 233c0 .5.9 1 1.9 1 2.2 0 3.1 1.9 3.1 6.6 0 1.9.5 3.4 1 3.4.6 0 1.1 1.7 1.1 3.7.1 3.8.1 3.8.9-.8 1-5.6 2.6-8.9 4.4-8.9.8 0 1.6-.7 2-1.5 1.2-3.1 5.1-3.9 10.1-1.9l4.7 1.8-.8 8.5c-.9 9.9-.9 9.4.1 27.1.7 12.5.5 14.9-2.5 32.5-1.7 10.4-3.5 23.5-3.9 29-.5 5.5-.9 9.3-1 8.4 0-.9-.9-2-1.8-2.4-3.3-1.4-9.3-2.2-9.3-1.4 0 .5 1.1.9 2.4.9 3.8 0 7.6 4.3 7.6 8.7 0 7.5-.6 8.3-6.5 8.3-3 0-5.7-.5-6.3-1.3-.8-.9-.4-4.7 1.4-13.2 2.1-10.3 2.4-14.8 2.4-31.7 0-13.6-.5-21.9-1.5-26.8-1.3-6.4-2.1-13.7-2.5-25.5-.1-2.6-1 .9-2.6 9.6-1.4 8.2-3.8 17.2-6 23-2 5.2-4.2 11.9-5 14.9-4.2 17.4-6.3 28.2-5.8 30.8.6 2.8.6 2.9-4 2.7-5.1-.2-7.7 1.9-7.5 6 0 1.9.1 1.9 1.1-.3 1.3-2.5 4-3.5 8.4-2.9 2.7.3 3 .8 4.2 7.2 1.6 8.1 1.4 8.5-7.1 8.5-5.2 0-5.8-.2-6.7-2.4-1.6-4.4-2.2-14-1.1-18.6.7-2.5 1.4-12.4 1.7-22 .5-14.6 1-19.1 3.1-27 3.5-12.5 4.2-28.7 1.7-37.8l-1.7-6.4 3.7-3c2-1.6 3.6-3.6 3.6-4.4 0-.8 1-1.9 2.3-2.4 3-1.2 10.7-1.2 10.7 0z"/></svg>